<mxfile host="65bd71144e">
    <diagram id="jPKvV5iT3YLOxVD6vbvR" name="Page-1">
        <mxGraphModel dx="2867" dy="2103" grid="1" gridSize="10" guides="1" tooltips="1" connect="1" arrows="1" fold="1" page="0" pageScale="1" pageWidth="827" pageHeight="1169" math="0" shadow="0">
            <root>
                <mxCell id="0"/>
                <mxCell id="1" parent="0"/>
                <mxCell id="2" value="Buffer" style="swimlane;fontStyle=1;align=center;verticalAlign=top;childLayout=stackLayout;horizontal=1;startSize=26;horizontalStack=0;resizeParent=1;resizeParentMax=0;resizeLast=0;collapsible=1;marginBottom=0;" parent="1" vertex="1">
                    <mxGeometry x="-470" y="-300" width="160" height="86" as="geometry"/>
                </mxCell>
                <mxCell id="3" value="+ field: type" style="text;strokeColor=none;fillColor=none;align=left;verticalAlign=top;spacingLeft=4;spacingRight=4;overflow=hidden;rotatable=0;points=[[0,0.5],[1,0.5]];portConstraint=eastwest;" parent="2" vertex="1">
                    <mxGeometry y="26" width="160" height="26" as="geometry"/>
                </mxCell>
                <mxCell id="4" value="" style="line;strokeWidth=1;fillColor=none;align=left;verticalAlign=middle;spacingTop=-1;spacingLeft=3;spacingRight=3;rotatable=0;labelPosition=right;points=[];portConstraint=eastwest;" parent="2" vertex="1">
                    <mxGeometry y="52" width="160" height="8" as="geometry"/>
                </mxCell>
                <mxCell id="5" value="+ method(type): type" style="text;strokeColor=none;fillColor=none;align=left;verticalAlign=top;spacingLeft=4;spacingRight=4;overflow=hidden;rotatable=0;points=[[0,0.5],[1,0.5]];portConstraint=eastwest;" parent="2" vertex="1">
                    <mxGeometry y="60" width="160" height="26" as="geometry"/>
                </mxCell>
                <mxCell id="6" value="InetAddress" style="swimlane;fontStyle=1;align=center;verticalAlign=top;childLayout=stackLayout;horizontal=1;startSize=26;horizontalStack=0;resizeParent=1;resizeParentMax=0;resizeLast=0;collapsible=1;marginBottom=0;" parent="1" vertex="1">
                    <mxGeometry x="-470" y="-130" width="160" height="86" as="geometry"/>
                </mxCell>
                <mxCell id="7" value="+ field: type" style="text;strokeColor=none;fillColor=none;align=left;verticalAlign=top;spacingLeft=4;spacingRight=4;overflow=hidden;rotatable=0;points=[[0,0.5],[1,0.5]];portConstraint=eastwest;" parent="6" vertex="1">
                    <mxGeometry y="26" width="160" height="26" as="geometry"/>
                </mxCell>
                <mxCell id="8" value="" style="line;strokeWidth=1;fillColor=none;align=left;verticalAlign=middle;spacingTop=-1;spacingLeft=3;spacingRight=3;rotatable=0;labelPosition=right;points=[];portConstraint=eastwest;" parent="6" vertex="1">
                    <mxGeometry y="52" width="160" height="8" as="geometry"/>
                </mxCell>
                <mxCell id="9" value="+ method(type): type" style="text;strokeColor=none;fillColor=none;align=left;verticalAlign=top;spacingLeft=4;spacingRight=4;overflow=hidden;rotatable=0;points=[[0,0.5],[1,0.5]];portConstraint=eastwest;" parent="6" vertex="1">
                    <mxGeometry y="60" width="160" height="26" as="geometry"/>
                </mxCell>
                <mxCell id="10" value="EventLoop" style="swimlane;fontStyle=1;align=center;verticalAlign=top;childLayout=stackLayout;horizontal=1;startSize=26;horizontalStack=0;resizeParent=1;resizeParentMax=0;resizeLast=0;collapsible=1;marginBottom=0;fillColor=#CCE5FF;" parent="1" vertex="1">
                    <mxGeometry x="-265" y="-680" width="305" height="294" as="geometry"/>
                </mxCell>
                <mxCell id="11" value="- poller_: std::unique_ptr&lt;Poller&gt;" style="text;strokeColor=none;fillColor=none;align=left;verticalAlign=top;spacingLeft=4;spacingRight=4;overflow=hidden;rotatable=0;points=[[0,0.5],[1,0.5]];portConstraint=eastwest;" parent="10" vertex="1">
                    <mxGeometry y="26" width="305" height="26" as="geometry"/>
                </mxCell>
                <mxCell id="112" value="- timerQueue_: std::unique_ptr&lt;TimerQueue&gt;" style="text;strokeColor=none;fillColor=none;align=left;verticalAlign=top;spacingLeft=4;spacingRight=4;overflow=hidden;rotatable=0;points=[[0,0.5],[1,0.5]];portConstraint=eastwest;" parent="10" vertex="1">
                    <mxGeometry y="52" width="305" height="26" as="geometry"/>
                </mxCell>
                <mxCell id="113" value="- wakeupChannel_: std::unique_ptr&lt;Channel&gt;" style="text;strokeColor=none;fillColor=none;align=left;verticalAlign=top;spacingLeft=4;spacingRight=4;overflow=hidden;rotatable=0;points=[[0,0.5],[1,0.5]];portConstraint=eastwest;" parent="10" vertex="1">
                    <mxGeometry y="78" width="305" height="26" as="geometry"/>
                </mxCell>
                <mxCell id="12" value="" style="line;strokeWidth=1;fillColor=none;align=left;verticalAlign=middle;spacingTop=-1;spacingLeft=3;spacingRight=3;rotatable=0;labelPosition=right;points=[];portConstraint=eastwest;" parent="10" vertex="1">
                    <mxGeometry y="104" width="305" height="8" as="geometry"/>
                </mxCell>
                <mxCell id="13" value="+ loop(): void" style="text;strokeColor=none;fillColor=none;align=left;verticalAlign=top;spacingLeft=4;spacingRight=4;overflow=hidden;rotatable=0;points=[[0,0.5],[1,0.5]];portConstraint=eastwest;" parent="10" vertex="1">
                    <mxGeometry y="112" width="305" height="26" as="geometry"/>
                </mxCell>
                <mxCell id="111" value="+ quit(): void" style="text;strokeColor=none;fillColor=none;align=left;verticalAlign=top;spacingLeft=4;spacingRight=4;overflow=hidden;rotatable=0;points=[[0,0.5],[1,0.5]];portConstraint=eastwest;" parent="10" vertex="1">
                    <mxGeometry y="138" width="305" height="26" as="geometry"/>
                </mxCell>
                <mxCell id="106" value="+ runAfter(double delay, TimerCallback cb): TimerId" style="text;strokeColor=none;fillColor=none;align=left;verticalAlign=top;spacingLeft=4;spacingRight=4;overflow=hidden;rotatable=0;points=[[0,0.5],[1,0.5]];portConstraint=eastwest;" parent="10" vertex="1">
                    <mxGeometry y="164" width="305" height="26" as="geometry"/>
                </mxCell>
                <mxCell id="107" value="+ runEvery(doube interval, TimerCallback cb): TimerId" style="text;strokeColor=none;fillColor=none;align=left;verticalAlign=top;spacingLeft=4;spacingRight=4;overflow=hidden;rotatable=0;points=[[0,0.5],[1,0.5]];portConstraint=eastwest;" parent="10" vertex="1">
                    <mxGeometry y="190" width="305" height="26" as="geometry"/>
                </mxCell>
                <mxCell id="108" value="+ runAt(Timestamp time, TimerCallback cb): TimerId" style="text;strokeColor=none;fillColor=none;align=left;verticalAlign=top;spacingLeft=4;spacingRight=4;overflow=hidden;rotatable=0;points=[[0,0.5],[1,0.5]];portConstraint=eastwest;" parent="10" vertex="1">
                    <mxGeometry y="216" width="305" height="26" as="geometry"/>
                </mxCell>
                <mxCell id="109" value="+ runInLoop(Functor cb): void" style="text;strokeColor=none;fillColor=none;align=left;verticalAlign=top;spacingLeft=4;spacingRight=4;overflow=hidden;rotatable=0;points=[[0,0.5],[1,0.5]];portConstraint=eastwest;" parent="10" vertex="1">
                    <mxGeometry y="242" width="305" height="26" as="geometry"/>
                </mxCell>
                <mxCell id="110" value="+ queueInLoop(Functor cb): void" style="text;strokeColor=none;fillColor=none;align=left;verticalAlign=top;spacingLeft=4;spacingRight=4;overflow=hidden;rotatable=0;points=[[0,0.5],[1,0.5]];portConstraint=eastwest;" parent="10" vertex="1">
                    <mxGeometry y="268" width="305" height="26" as="geometry"/>
                </mxCell>
                <mxCell id="14" value="EventLoopThread" style="swimlane;fontStyle=1;align=center;verticalAlign=top;childLayout=stackLayout;horizontal=1;startSize=26;horizontalStack=0;resizeParent=1;resizeParentMax=0;resizeLast=0;collapsible=1;marginBottom=0;" parent="1" vertex="1">
                    <mxGeometry x="-480" y="-10" width="160" height="86" as="geometry"/>
                </mxCell>
                <mxCell id="15" value="+ field: type" style="text;strokeColor=none;fillColor=none;align=left;verticalAlign=top;spacingLeft=4;spacingRight=4;overflow=hidden;rotatable=0;points=[[0,0.5],[1,0.5]];portConstraint=eastwest;" parent="14" vertex="1">
                    <mxGeometry y="26" width="160" height="26" as="geometry"/>
                </mxCell>
                <mxCell id="16" value="" style="line;strokeWidth=1;fillColor=none;align=left;verticalAlign=middle;spacingTop=-1;spacingLeft=3;spacingRight=3;rotatable=0;labelPosition=right;points=[];portConstraint=eastwest;" parent="14" vertex="1">
                    <mxGeometry y="52" width="160" height="8" as="geometry"/>
                </mxCell>
                <mxCell id="17" value="+ method(type): type" style="text;strokeColor=none;fillColor=none;align=left;verticalAlign=top;spacingLeft=4;spacingRight=4;overflow=hidden;rotatable=0;points=[[0,0.5],[1,0.5]];portConstraint=eastwest;" parent="14" vertex="1">
                    <mxGeometry y="60" width="160" height="26" as="geometry"/>
                </mxCell>
                <mxCell id="18" value="TcpConnection" style="swimlane;fontStyle=1;align=center;verticalAlign=top;childLayout=stackLayout;horizontal=1;startSize=26;horizontalStack=0;resizeParent=1;resizeParentMax=0;resizeLast=0;collapsible=1;marginBottom=0;fillColor=#CCE5FF;" parent="1" vertex="1">
                    <mxGeometry x="1180" y="-288" width="520" height="320" as="geometry"/>
                </mxCell>
                <mxCell id="132" value="- channel_: std::unique_ptr&lt;Channel&gt;" style="text;strokeColor=none;fillColor=none;align=left;verticalAlign=top;spacingLeft=4;spacingRight=4;overflow=hidden;rotatable=0;points=[[0,0.5],[1,0.5]];portConstraint=eastwest;" parent="18" vertex="1">
                    <mxGeometry y="26" width="520" height="26" as="geometry"/>
                </mxCell>
                <mxCell id="19" value="- socket_: std::unique_ptr&lt;Socket&gt;" style="text;strokeColor=none;fillColor=none;align=left;verticalAlign=top;spacingLeft=4;spacingRight=4;overflow=hidden;rotatable=0;points=[[0,0.5],[1,0.5]];portConstraint=eastwest;" parent="18" vertex="1">
                    <mxGeometry y="52" width="520" height="26" as="geometry"/>
                </mxCell>
                <mxCell id="133" value="- connectionCallback_: ConnectionCallback" style="text;strokeColor=none;fillColor=none;align=left;verticalAlign=top;spacingLeft=4;spacingRight=4;overflow=hidden;rotatable=0;points=[[0,0.5],[1,0.5]];portConstraint=eastwest;" parent="18" vertex="1">
                    <mxGeometry y="78" width="520" height="26" as="geometry"/>
                </mxCell>
                <mxCell id="134" value="- messageCallback_: MessageCallback" style="text;strokeColor=none;fillColor=none;align=left;verticalAlign=top;spacingLeft=4;spacingRight=4;overflow=hidden;rotatable=0;points=[[0,0.5],[1,0.5]];portConstraint=eastwest;" parent="18" vertex="1">
                    <mxGeometry y="104" width="520" height="26" as="geometry"/>
                </mxCell>
                <mxCell id="135" value="- writeCompleteCallback_: WriteCompleteCallback" style="text;strokeColor=none;fillColor=none;align=left;verticalAlign=top;spacingLeft=4;spacingRight=4;overflow=hidden;rotatable=0;points=[[0,0.5],[1,0.5]];portConstraint=eastwest;" parent="18" vertex="1">
                    <mxGeometry y="130" width="520" height="26" as="geometry"/>
                </mxCell>
                <mxCell id="136" value="- highWaterMarkCallback_: HighWaterMarkCallback" style="text;strokeColor=none;fillColor=none;align=left;verticalAlign=top;spacingLeft=4;spacingRight=4;overflow=hidden;rotatable=0;points=[[0,0.5],[1,0.5]];portConstraint=eastwest;" parent="18" vertex="1">
                    <mxGeometry y="156" width="520" height="26" as="geometry"/>
                </mxCell>
                <mxCell id="137" value="- closeCallback_: CloseCallback" style="text;strokeColor=none;fillColor=none;align=left;verticalAlign=top;spacingLeft=4;spacingRight=4;overflow=hidden;rotatable=0;points=[[0,0.5],[1,0.5]];portConstraint=eastwest;" parent="18" vertex="1">
                    <mxGeometry y="182" width="520" height="26" as="geometry"/>
                </mxCell>
                <mxCell id="20" value="" style="line;strokeWidth=1;fillColor=none;align=left;verticalAlign=middle;spacingTop=-1;spacingLeft=3;spacingRight=3;rotatable=0;labelPosition=right;points=[];portConstraint=eastwest;" parent="18" vertex="1">
                    <mxGeometry y="208" width="520" height="8" as="geometry"/>
                </mxCell>
                <mxCell id="21" value="+ setConnectionCallback(const ConnectionCallback&amp; cb): void" style="text;strokeColor=none;fillColor=none;align=left;verticalAlign=top;spacingLeft=4;spacingRight=4;overflow=hidden;rotatable=0;points=[[0,0.5],[1,0.5]];portConstraint=eastwest;" parent="18" vertex="1">
                    <mxGeometry y="216" width="520" height="26" as="geometry"/>
                </mxCell>
                <mxCell id="138" value="+ setMessageCallback(const MessageCallback&amp; cb): void" style="text;strokeColor=none;fillColor=none;align=left;verticalAlign=top;spacingLeft=4;spacingRight=4;overflow=hidden;rotatable=0;points=[[0,0.5],[1,0.5]];portConstraint=eastwest;" parent="18" vertex="1">
                    <mxGeometry y="242" width="520" height="26" as="geometry"/>
                </mxCell>
                <mxCell id="139" value="+ setWriteCompleteCallback(const WriteCompleteCallback&amp; cb): void" style="text;strokeColor=none;fillColor=none;align=left;verticalAlign=top;spacingLeft=4;spacingRight=4;overflow=hidden;rotatable=0;points=[[0,0.5],[1,0.5]];portConstraint=eastwest;" parent="18" vertex="1">
                    <mxGeometry y="268" width="520" height="26" as="geometry"/>
                </mxCell>
                <mxCell id="140" value="+ setHighWaterMarkCallback(const HighWaterMarkCallback&amp; cb, size_t highWaterMark): void" style="text;strokeColor=none;fillColor=none;align=left;verticalAlign=top;spacingLeft=4;spacingRight=4;overflow=hidden;rotatable=0;points=[[0,0.5],[1,0.5]];portConstraint=eastwest;" parent="18" vertex="1">
                    <mxGeometry y="294" width="520" height="26" as="geometry"/>
                </mxCell>
                <mxCell id="22" value="TcpClient" style="swimlane;fontStyle=1;align=center;verticalAlign=top;childLayout=stackLayout;horizontal=1;startSize=26;horizontalStack=0;resizeParent=1;resizeParentMax=0;resizeLast=0;collapsible=1;marginBottom=0;fillColor=#CCE5FF;" parent="1" vertex="1">
                    <mxGeometry x="2540" y="-40" width="340" height="216" as="geometry"/>
                </mxCell>
                <mxCell id="23" value="- connector_: ConnectorPtr" style="text;strokeColor=none;fillColor=none;align=left;verticalAlign=top;spacingLeft=4;spacingRight=4;overflow=hidden;rotatable=0;points=[[0,0.5],[1,0.5]];portConstraint=eastwest;" parent="22" vertex="1">
                    <mxGeometry y="26" width="340" height="26" as="geometry"/>
                </mxCell>
                <mxCell id="146" value="- connection_: TcpConnectionPtr" style="text;strokeColor=none;fillColor=none;align=left;verticalAlign=top;spacingLeft=4;spacingRight=4;overflow=hidden;rotatable=0;points=[[0,0.5],[1,0.5]];portConstraint=eastwest;" parent="22" vertex="1">
                    <mxGeometry y="52" width="340" height="26" as="geometry"/>
                </mxCell>
                <mxCell id="24" value="" style="line;strokeWidth=1;fillColor=none;align=left;verticalAlign=middle;spacingTop=-1;spacingLeft=3;spacingRight=3;rotatable=0;labelPosition=right;points=[];portConstraint=eastwest;" parent="22" vertex="1">
                    <mxGeometry y="78" width="340" height="8" as="geometry"/>
                </mxCell>
                <mxCell id="25" value="+ setConnectionCallback(ConnectionCallback cb): void" style="text;strokeColor=none;fillColor=none;align=left;verticalAlign=top;spacingLeft=4;spacingRight=4;overflow=hidden;rotatable=0;points=[[0,0.5],[1,0.5]];portConstraint=eastwest;" parent="22" vertex="1">
                    <mxGeometry y="86" width="340" height="26" as="geometry"/>
                </mxCell>
                <mxCell id="148" value="+ setMessageCallback(MessageCallback cb): void" style="text;strokeColor=none;fillColor=none;align=left;verticalAlign=top;spacingLeft=4;spacingRight=4;overflow=hidden;rotatable=0;points=[[0,0.5],[1,0.5]];portConstraint=eastwest;" parent="22" vertex="1">
                    <mxGeometry y="112" width="340" height="26" as="geometry"/>
                </mxCell>
                <mxCell id="149" value="+ setWriteCompleteCallback(WriteCompleteCallback cb): void" style="text;strokeColor=none;fillColor=none;align=left;verticalAlign=top;spacingLeft=4;spacingRight=4;overflow=hidden;rotatable=0;points=[[0,0.5],[1,0.5]];portConstraint=eastwest;" parent="22" vertex="1">
                    <mxGeometry y="138" width="340" height="26" as="geometry"/>
                </mxCell>
                <mxCell id="154" value="- newConnection(int sockfd): void" style="text;strokeColor=none;fillColor=none;align=left;verticalAlign=top;spacingLeft=4;spacingRight=4;overflow=hidden;rotatable=0;points=[[0,0.5],[1,0.5]];portConstraint=eastwest;" parent="22" vertex="1">
                    <mxGeometry y="164" width="340" height="26" as="geometry"/>
                </mxCell>
                <mxCell id="162" value="+ connect(): void" style="text;strokeColor=none;fillColor=none;align=left;verticalAlign=top;spacingLeft=4;spacingRight=4;overflow=hidden;rotatable=0;points=[[0,0.5],[1,0.5]];portConstraint=eastwest;" parent="22" vertex="1">
                    <mxGeometry y="190" width="340" height="26" as="geometry"/>
                </mxCell>
                <mxCell id="26" value="TcpServer" style="swimlane;fontStyle=1;align=center;verticalAlign=top;childLayout=stackLayout;horizontal=1;startSize=26;horizontalStack=0;resizeParent=1;resizeParentMax=0;resizeLast=0;collapsible=1;marginBottom=0;fillColor=#CCE5FF;" parent="1" vertex="1">
                    <mxGeometry x="1880" y="-40" width="390" height="190" as="geometry"/>
                </mxCell>
                <mxCell id="27" value="- connections_: ConnectionMap" style="text;strokeColor=none;fillColor=none;align=left;verticalAlign=top;spacingLeft=4;spacingRight=4;overflow=hidden;rotatable=0;points=[[0,0.5],[1,0.5]];portConstraint=eastwest;" parent="26" vertex="1">
                    <mxGeometry y="26" width="390" height="26" as="geometry"/>
                </mxCell>
                <mxCell id="144" value="- acceptor_: std::unique_ptr&lt;Acceptor&gt;" style="text;strokeColor=none;fillColor=none;align=left;verticalAlign=top;spacingLeft=4;spacingRight=4;overflow=hidden;rotatable=0;points=[[0,0.5],[1,0.5]];portConstraint=eastwest;" parent="26" vertex="1">
                    <mxGeometry y="52" width="390" height="26" as="geometry"/>
                </mxCell>
                <mxCell id="158" value="- threadPool_: std::shared_ptr&lt;EventLoopThreadPool&gt;" style="text;strokeColor=none;fillColor=none;align=left;verticalAlign=top;spacingLeft=4;spacingRight=4;overflow=hidden;rotatable=0;points=[[0,0.5],[1,0.5]];portConstraint=eastwest;" parent="26" vertex="1">
                    <mxGeometry y="78" width="390" height="26" as="geometry"/>
                </mxCell>
                <mxCell id="28" value="" style="line;strokeWidth=1;fillColor=none;align=left;verticalAlign=middle;spacingTop=-1;spacingLeft=3;spacingRight=3;rotatable=0;labelPosition=right;points=[];portConstraint=eastwest;" parent="26" vertex="1">
                    <mxGeometry y="104" width="390" height="8" as="geometry"/>
                </mxCell>
                <mxCell id="29" value="+ setConnectionCallback(const ConnectionCallback&amp; cb): void" style="text;strokeColor=none;fillColor=none;align=left;verticalAlign=top;spacingLeft=4;spacingRight=4;overflow=hidden;rotatable=0;points=[[0,0.5],[1,0.5]];portConstraint=eastwest;" parent="26" vertex="1">
                    <mxGeometry y="112" width="390" height="26" as="geometry"/>
                </mxCell>
                <mxCell id="141" value="+ setMessageCallback(const MessageCallback&amp; cb): void" style="text;strokeColor=none;fillColor=none;align=left;verticalAlign=top;spacingLeft=4;spacingRight=4;overflow=hidden;rotatable=0;points=[[0,0.5],[1,0.5]];portConstraint=eastwest;" parent="26" vertex="1">
                    <mxGeometry y="138" width="390" height="26" as="geometry"/>
                </mxCell>
                <mxCell id="142" value="+ setWriteCompleteCallback(const WriteCompleteCallback&amp; cb): void" style="text;strokeColor=none;fillColor=none;align=left;verticalAlign=top;spacingLeft=4;spacingRight=4;overflow=hidden;rotatable=0;points=[[0,0.5],[1,0.5]];portConstraint=eastwest;" parent="26" vertex="1">
                    <mxGeometry y="164" width="390" height="26" as="geometry"/>
                </mxCell>
                <mxCell id="30" value="Channel" style="swimlane;fontStyle=1;align=center;verticalAlign=top;childLayout=stackLayout;horizontal=1;startSize=26;horizontalStack=0;resizeParent=1;resizeParentMax=0;resizeLast=0;collapsible=1;marginBottom=0;fillColor=#CCE5FF;" parent="1" vertex="1">
                    <mxGeometry x="720" y="-780" width="280" height="320" as="geometry"/>
                </mxCell>
                <mxCell id="31" value="- fd_: int" style="text;strokeColor=none;fillColor=none;align=left;verticalAlign=top;spacingLeft=4;spacingRight=4;overflow=hidden;rotatable=0;points=[[0,0.5],[1,0.5]];portConstraint=eastwest;" parent="30" vertex="1">
                    <mxGeometry y="26" width="280" height="26" as="geometry"/>
                </mxCell>
                <mxCell id="114" value="- loop_: EventLoop*" style="text;strokeColor=none;fillColor=none;align=left;verticalAlign=top;spacingLeft=4;spacingRight=4;overflow=hidden;rotatable=0;points=[[0,0.5],[1,0.5]];portConstraint=eastwest;" parent="30" vertex="1">
                    <mxGeometry y="52" width="280" height="26" as="geometry"/>
                </mxCell>
                <mxCell id="115" value="- readCallback_: ReadEventCallback" style="text;strokeColor=none;fillColor=none;align=left;verticalAlign=top;spacingLeft=4;spacingRight=4;overflow=hidden;rotatable=0;points=[[0,0.5],[1,0.5]];portConstraint=eastwest;" parent="30" vertex="1">
                    <mxGeometry y="78" width="280" height="26" as="geometry"/>
                </mxCell>
                <mxCell id="116" value="- writeCallback_: EventCallback" style="text;strokeColor=none;fillColor=none;align=left;verticalAlign=top;spacingLeft=4;spacingRight=4;overflow=hidden;rotatable=0;points=[[0,0.5],[1,0.5]];portConstraint=eastwest;" parent="30" vertex="1">
                    <mxGeometry y="104" width="280" height="26" as="geometry"/>
                </mxCell>
                <mxCell id="117" value="- closeCallback_: EventCallback" style="text;strokeColor=none;fillColor=none;align=left;verticalAlign=top;spacingLeft=4;spacingRight=4;overflow=hidden;rotatable=0;points=[[0,0.5],[1,0.5]];portConstraint=eastwest;" parent="30" vertex="1">
                    <mxGeometry y="130" width="280" height="26" as="geometry"/>
                </mxCell>
                <mxCell id="118" value="- errorCallback_: EventCallback" style="text;strokeColor=none;fillColor=none;align=left;verticalAlign=top;spacingLeft=4;spacingRight=4;overflow=hidden;rotatable=0;points=[[0,0.5],[1,0.5]];portConstraint=eastwest;" parent="30" vertex="1">
                    <mxGeometry y="156" width="280" height="26" as="geometry"/>
                </mxCell>
                <mxCell id="32" value="" style="line;strokeWidth=1;fillColor=none;align=left;verticalAlign=middle;spacingTop=-1;spacingLeft=3;spacingRight=3;rotatable=0;labelPosition=right;points=[];portConstraint=eastwest;" parent="30" vertex="1">
                    <mxGeometry y="182" width="280" height="8" as="geometry"/>
                </mxCell>
                <mxCell id="126" value="+ handleEvent(Timestamp receiveTime): void" style="text;strokeColor=none;fillColor=none;align=left;verticalAlign=top;spacingLeft=4;spacingRight=4;overflow=hidden;rotatable=0;points=[[0,0.5],[1,0.5]];portConstraint=eastwest;" parent="30" vertex="1">
                    <mxGeometry y="190" width="280" height="26" as="geometry"/>
                </mxCell>
                <mxCell id="33" value="+ setReadCallback(ReadEventCallback cb): void" style="text;strokeColor=none;fillColor=none;align=left;verticalAlign=top;spacingLeft=4;spacingRight=4;overflow=hidden;rotatable=0;points=[[0,0.5],[1,0.5]];portConstraint=eastwest;" parent="30" vertex="1">
                    <mxGeometry y="216" width="280" height="26" as="geometry"/>
                </mxCell>
                <mxCell id="119" value="+ setWriteCallback(EventCallback cb): void" style="text;strokeColor=none;fillColor=none;align=left;verticalAlign=top;spacingLeft=4;spacingRight=4;overflow=hidden;rotatable=0;points=[[0,0.5],[1,0.5]];portConstraint=eastwest;" parent="30" vertex="1">
                    <mxGeometry y="242" width="280" height="26" as="geometry"/>
                </mxCell>
                <mxCell id="120" value="+ setCloseCallback(EventCallback cb): void" style="text;strokeColor=none;fillColor=none;align=left;verticalAlign=top;spacingLeft=4;spacingRight=4;overflow=hidden;rotatable=0;points=[[0,0.5],[1,0.5]];portConstraint=eastwest;" parent="30" vertex="1">
                    <mxGeometry y="268" width="280" height="26" as="geometry"/>
                </mxCell>
                <mxCell id="121" value="+ setErrorCallback(EventCallback cb): void" style="text;strokeColor=none;fillColor=none;align=left;verticalAlign=top;spacingLeft=4;spacingRight=4;overflow=hidden;rotatable=0;points=[[0,0.5],[1,0.5]];portConstraint=eastwest;" parent="30" vertex="1">
                    <mxGeometry y="294" width="280" height="26" as="geometry"/>
                </mxCell>
                <mxCell id="34" value="Acceptor" style="swimlane;fontStyle=1;align=center;verticalAlign=top;childLayout=stackLayout;horizontal=1;startSize=26;horizontalStack=0;resizeParent=1;resizeParentMax=0;resizeLast=0;collapsible=1;marginBottom=0;fillColor=#CCFFE6;" parent="1" vertex="1">
                    <mxGeometry x="1990" y="-400" width="160" height="112" as="geometry"/>
                </mxCell>
                <mxCell id="35" value="- acceptChannel_: Channel" style="text;strokeColor=none;fillColor=none;align=left;verticalAlign=top;spacingLeft=4;spacingRight=4;overflow=hidden;rotatable=0;points=[[0,0.5],[1,0.5]];portConstraint=eastwest;" parent="34" vertex="1">
                    <mxGeometry y="26" width="160" height="26" as="geometry"/>
                </mxCell>
                <mxCell id="145" value="- acceptSocket_: Socket" style="text;strokeColor=none;fillColor=none;align=left;verticalAlign=top;spacingLeft=4;spacingRight=4;overflow=hidden;rotatable=0;points=[[0,0.5],[1,0.5]];portConstraint=eastwest;" parent="34" vertex="1">
                    <mxGeometry y="52" width="160" height="26" as="geometry"/>
                </mxCell>
                <mxCell id="36" value="" style="line;strokeWidth=1;fillColor=none;align=left;verticalAlign=middle;spacingTop=-1;spacingLeft=3;spacingRight=3;rotatable=0;labelPosition=right;points=[];portConstraint=eastwest;" parent="34" vertex="1">
                    <mxGeometry y="78" width="160" height="8" as="geometry"/>
                </mxCell>
                <mxCell id="37" value="+ method(type): type" style="text;strokeColor=none;fillColor=none;align=left;verticalAlign=top;spacingLeft=4;spacingRight=4;overflow=hidden;rotatable=0;points=[[0,0.5],[1,0.5]];portConstraint=eastwest;" parent="34" vertex="1">
                    <mxGeometry y="86" width="160" height="26" as="geometry"/>
                </mxCell>
                <mxCell id="38" value="Connector" style="swimlane;fontStyle=1;align=center;verticalAlign=top;childLayout=stackLayout;horizontal=1;startSize=26;horizontalStack=0;resizeParent=1;resizeParentMax=0;resizeLast=0;collapsible=1;marginBottom=0;fillColor=#CCFFE6;" parent="1" vertex="1">
                    <mxGeometry x="2570" y="-398" width="300" height="112" as="geometry"/>
                </mxCell>
                <mxCell id="39" value="- channel_: std::unique_ptr&lt;Channel&gt;" style="text;strokeColor=none;fillColor=none;align=left;verticalAlign=top;spacingLeft=4;spacingRight=4;overflow=hidden;rotatable=0;points=[[0,0.5],[1,0.5]];portConstraint=eastwest;" parent="38" vertex="1">
                    <mxGeometry y="26" width="300" height="26" as="geometry"/>
                </mxCell>
                <mxCell id="150" value="- newConnectionCallback_: NewConnectionCallback" style="text;strokeColor=none;fillColor=none;align=left;verticalAlign=top;spacingLeft=4;spacingRight=4;overflow=hidden;rotatable=0;points=[[0,0.5],[1,0.5]];portConstraint=eastwest;" parent="38" vertex="1">
                    <mxGeometry y="52" width="300" height="26" as="geometry"/>
                </mxCell>
                <mxCell id="40" value="" style="line;strokeWidth=1;fillColor=none;align=left;verticalAlign=middle;spacingTop=-1;spacingLeft=3;spacingRight=3;rotatable=0;labelPosition=right;points=[];portConstraint=eastwest;" parent="38" vertex="1">
                    <mxGeometry y="78" width="300" height="8" as="geometry"/>
                </mxCell>
                <mxCell id="41" value="+ method(type): type" style="text;strokeColor=none;fillColor=none;align=left;verticalAlign=top;spacingLeft=4;spacingRight=4;overflow=hidden;rotatable=0;points=[[0,0.5],[1,0.5]];portConstraint=eastwest;" parent="38" vertex="1">
                    <mxGeometry y="86" width="300" height="26" as="geometry"/>
                </mxCell>
                <mxCell id="46" value="TimerQueue" style="swimlane;fontStyle=1;align=center;verticalAlign=top;childLayout=stackLayout;horizontal=1;startSize=26;horizontalStack=0;resizeParent=1;resizeParentMax=0;resizeLast=0;collapsible=1;marginBottom=0;fillColor=#CCFFE6;" parent="1" vertex="1">
                    <mxGeometry x="-630" y="-740" width="160" height="112" as="geometry"/>
                </mxCell>
                <mxCell id="47" value="- timerfdChannel_: Channel" style="text;strokeColor=none;fillColor=none;align=left;verticalAlign=top;spacingLeft=4;spacingRight=4;overflow=hidden;rotatable=0;points=[[0,0.5],[1,0.5]];portConstraint=eastwest;" parent="46" vertex="1">
                    <mxGeometry y="26" width="160" height="26" as="geometry"/>
                </mxCell>
                <mxCell id="156" value="- timers_: TimerList" style="text;strokeColor=none;fillColor=none;align=left;verticalAlign=top;spacingLeft=4;spacingRight=4;overflow=hidden;rotatable=0;points=[[0,0.5],[1,0.5]];portConstraint=eastwest;" parent="46" vertex="1">
                    <mxGeometry y="52" width="160" height="26" as="geometry"/>
                </mxCell>
                <mxCell id="48" value="" style="line;strokeWidth=1;fillColor=none;align=left;verticalAlign=middle;spacingTop=-1;spacingLeft=3;spacingRight=3;rotatable=0;labelPosition=right;points=[];portConstraint=eastwest;" parent="46" vertex="1">
                    <mxGeometry y="78" width="160" height="8" as="geometry"/>
                </mxCell>
                <mxCell id="49" value="+ method(type): type" style="text;strokeColor=none;fillColor=none;align=left;verticalAlign=top;spacingLeft=4;spacingRight=4;overflow=hidden;rotatable=0;points=[[0,0.5],[1,0.5]];portConstraint=eastwest;" parent="46" vertex="1">
                    <mxGeometry y="86" width="160" height="26" as="geometry"/>
                </mxCell>
                <mxCell id="52" value="" style="endArrow=diamondThin;endFill=1;endSize=24;html=1;edgeStyle=orthogonalEdgeStyle;" parent="1" source="30" target="35" edge="1">
                    <mxGeometry width="160" relative="1" as="geometry">
                        <mxPoint x="-50" y="540" as="sourcePoint"/>
                        <mxPoint x="1960" y="-390" as="targetPoint"/>
                        <Array as="points">
                            <mxPoint x="1920" y="-760"/>
                            <mxPoint x="1920" y="-361"/>
                        </Array>
                    </mxGeometry>
                </mxCell>
                <mxCell id="53" value="" style="endArrow=diamondThin;endFill=1;endSize=24;html=1;edgeStyle=orthogonalEdgeStyle;entryX=0;entryY=0.5;entryDx=0;entryDy=0;" parent="1" source="30" target="132" edge="1">
                    <mxGeometry width="160" relative="1" as="geometry">
                        <mxPoint x="-30" y="410" as="sourcePoint"/>
                        <mxPoint x="1190" y="-460" as="targetPoint"/>
                        <Array as="points">
                            <mxPoint x="1080" y="-760"/>
                            <mxPoint x="1080" y="-249"/>
                        </Array>
                    </mxGeometry>
                </mxCell>
                <mxCell id="54" value="" style="endArrow=diamondThin;endFill=1;endSize=24;html=1;edgeStyle=orthogonalEdgeStyle;" parent="1" source="30" target="47" edge="1">
                    <mxGeometry width="160" relative="1" as="geometry">
                        <mxPoint x="-20" y="420" as="sourcePoint"/>
                        <mxPoint x="140" y="420" as="targetPoint"/>
                        <Array as="points">
                            <mxPoint x="190" y="-760"/>
                            <mxPoint x="190" y="-701"/>
                        </Array>
                    </mxGeometry>
                </mxCell>
                <mxCell id="55" value="" style="endArrow=diamondThin;endFill=1;endSize=24;html=1;entryX=1;entryY=0.5;entryDx=0;entryDy=0;fillColor=#CCE5FF;edgeStyle=orthogonalEdgeStyle;" parent="1" source="30" target="113" edge="1">
                    <mxGeometry width="160" relative="1" as="geometry">
                        <mxPoint x="-10" y="430" as="sourcePoint"/>
                        <mxPoint x="150" y="430" as="targetPoint"/>
                        <Array as="points">
                            <mxPoint x="190" y="-760"/>
                            <mxPoint x="190" y="-589"/>
                        </Array>
                    </mxGeometry>
                </mxCell>
                <mxCell id="56" value="" style="endArrow=diamondThin;endFill=1;endSize=24;html=1;edgeStyle=orthogonalEdgeStyle;" parent="1" source="30" target="39" edge="1">
                    <mxGeometry width="160" relative="1" as="geometry">
                        <mxPoint y="440" as="sourcePoint"/>
                        <mxPoint x="160" y="440" as="targetPoint"/>
                        <Array as="points">
                            <mxPoint x="2490" y="-760"/>
                            <mxPoint x="2490" y="-355"/>
                        </Array>
                    </mxGeometry>
                </mxCell>
                <mxCell id="57" value="Socket" style="swimlane;fontStyle=1;align=center;verticalAlign=top;childLayout=stackLayout;horizontal=1;startSize=26;horizontalStack=0;resizeParent=1;resizeParentMax=0;resizeLast=0;collapsible=1;marginBottom=0;fillColor=#CCFFE6;" parent="1" vertex="1">
                    <mxGeometry x="420" y="-374" width="160" height="86" as="geometry"/>
                </mxCell>
                <mxCell id="58" value="+ field: type" style="text;strokeColor=none;fillColor=none;align=left;verticalAlign=top;spacingLeft=4;spacingRight=4;overflow=hidden;rotatable=0;points=[[0,0.5],[1,0.5]];portConstraint=eastwest;" parent="57" vertex="1">
                    <mxGeometry y="26" width="160" height="26" as="geometry"/>
                </mxCell>
                <mxCell id="59" value="" style="line;strokeWidth=1;fillColor=none;align=left;verticalAlign=middle;spacingTop=-1;spacingLeft=3;spacingRight=3;rotatable=0;labelPosition=right;points=[];portConstraint=eastwest;" parent="57" vertex="1">
                    <mxGeometry y="52" width="160" height="8" as="geometry"/>
                </mxCell>
                <mxCell id="60" value="+ method(type): type" style="text;strokeColor=none;fillColor=none;align=left;verticalAlign=top;spacingLeft=4;spacingRight=4;overflow=hidden;rotatable=0;points=[[0,0.5],[1,0.5]];portConstraint=eastwest;" parent="57" vertex="1">
                    <mxGeometry y="60" width="160" height="26" as="geometry"/>
                </mxCell>
                <mxCell id="61" value="" style="endArrow=diamondThin;endFill=1;endSize=24;html=1;edgeStyle=orthogonalEdgeStyle;" parent="1" source="68" target="11" edge="1">
                    <mxGeometry width="160" relative="1" as="geometry">
                        <mxPoint x="-45" y="150" as="sourcePoint"/>
                        <mxPoint x="115" y="150" as="targetPoint"/>
                        <Array as="points">
                            <mxPoint x="-360" y="-930"/>
                            <mxPoint x="-360" y="-641"/>
                        </Array>
                    </mxGeometry>
                </mxCell>
                <mxCell id="62" value="" style="endArrow=diamondThin;endFill=1;endSize=24;html=1;edgeStyle=orthogonalEdgeStyle;" parent="1" source="57" target="145" edge="1">
                    <mxGeometry width="160" relative="1" as="geometry">
                        <mxPoint x="-20" y="420" as="sourcePoint"/>
                        <mxPoint x="140" y="420" as="targetPoint"/>
                        <Array as="points">
                            <mxPoint x="1285" y="-360"/>
                            <mxPoint x="1285" y="-335"/>
                        </Array>
                    </mxGeometry>
                </mxCell>
                <mxCell id="63" value="" style="endArrow=diamondThin;endFill=1;endSize=24;html=1;edgeStyle=orthogonalEdgeStyle;" parent="1" source="57" target="19" edge="1">
                    <mxGeometry width="160" relative="1" as="geometry">
                        <mxPoint x="390" y="740" as="sourcePoint"/>
                        <mxPoint x="150" y="430" as="targetPoint"/>
                    </mxGeometry>
                </mxCell>
                <mxCell id="68" value="Poller" style="swimlane;fontStyle=1;align=center;verticalAlign=top;childLayout=stackLayout;horizontal=1;startSize=26;horizontalStack=0;resizeParent=1;resizeParentMax=0;resizeLast=0;collapsible=1;marginBottom=0;fillColor=#CCFFE6;" parent="1" vertex="1">
                    <mxGeometry x="-640" y="-940" width="160" height="86" as="geometry"/>
                </mxCell>
                <mxCell id="69" value="# channels_: ChannelMap" style="text;strokeColor=none;fillColor=none;align=left;verticalAlign=top;spacingLeft=4;spacingRight=4;overflow=hidden;rotatable=0;points=[[0,0.5],[1,0.5]];portConstraint=eastwest;" parent="68" vertex="1">
                    <mxGeometry y="26" width="160" height="26" as="geometry"/>
                </mxCell>
                <mxCell id="70" value="" style="line;strokeWidth=1;fillColor=none;align=left;verticalAlign=middle;spacingTop=-1;spacingLeft=3;spacingRight=3;rotatable=0;labelPosition=right;points=[];portConstraint=eastwest;" parent="68" vertex="1">
                    <mxGeometry y="52" width="160" height="8" as="geometry"/>
                </mxCell>
                <mxCell id="71" value="+ method(type): type" style="text;strokeColor=none;fillColor=none;align=left;verticalAlign=top;spacingLeft=4;spacingRight=4;overflow=hidden;rotatable=0;points=[[0,0.5],[1,0.5]];portConstraint=eastwest;" parent="68" vertex="1">
                    <mxGeometry y="60" width="160" height="26" as="geometry"/>
                </mxCell>
                <mxCell id="72" value="PollPoller" style="swimlane;fontStyle=1;align=center;verticalAlign=top;childLayout=stackLayout;horizontal=1;startSize=26;horizontalStack=0;resizeParent=1;resizeParentMax=0;resizeLast=0;collapsible=1;marginBottom=0;fillColor=#CCFFE6;" parent="1" vertex="1">
                    <mxGeometry x="-960" y="-980" width="160" height="86" as="geometry"/>
                </mxCell>
                <mxCell id="73" value="+ field: type" style="text;strokeColor=none;fillColor=none;align=left;verticalAlign=top;spacingLeft=4;spacingRight=4;overflow=hidden;rotatable=0;points=[[0,0.5],[1,0.5]];portConstraint=eastwest;" parent="72" vertex="1">
                    <mxGeometry y="26" width="160" height="26" as="geometry"/>
                </mxCell>
                <mxCell id="74" value="" style="line;strokeWidth=1;fillColor=none;align=left;verticalAlign=middle;spacingTop=-1;spacingLeft=3;spacingRight=3;rotatable=0;labelPosition=right;points=[];portConstraint=eastwest;" parent="72" vertex="1">
                    <mxGeometry y="52" width="160" height="8" as="geometry"/>
                </mxCell>
                <mxCell id="75" value="+ method(type): type" style="text;strokeColor=none;fillColor=none;align=left;verticalAlign=top;spacingLeft=4;spacingRight=4;overflow=hidden;rotatable=0;points=[[0,0.5],[1,0.5]];portConstraint=eastwest;" parent="72" vertex="1">
                    <mxGeometry y="60" width="160" height="26" as="geometry"/>
                </mxCell>
                <mxCell id="76" value="EPollPoller" style="swimlane;fontStyle=1;align=center;verticalAlign=top;childLayout=stackLayout;horizontal=1;startSize=26;horizontalStack=0;resizeParent=1;resizeParentMax=0;resizeLast=0;collapsible=1;marginBottom=0;fillColor=#CCFFE6;" parent="1" vertex="1">
                    <mxGeometry x="-950" y="-840" width="160" height="86" as="geometry"/>
                </mxCell>
                <mxCell id="77" value="+ field: type" style="text;strokeColor=none;fillColor=none;align=left;verticalAlign=top;spacingLeft=4;spacingRight=4;overflow=hidden;rotatable=0;points=[[0,0.5],[1,0.5]];portConstraint=eastwest;" parent="76" vertex="1">
                    <mxGeometry y="26" width="160" height="26" as="geometry"/>
                </mxCell>
                <mxCell id="78" value="" style="line;strokeWidth=1;fillColor=none;align=left;verticalAlign=middle;spacingTop=-1;spacingLeft=3;spacingRight=3;rotatable=0;labelPosition=right;points=[];portConstraint=eastwest;" parent="76" vertex="1">
                    <mxGeometry y="52" width="160" height="8" as="geometry"/>
                </mxCell>
                <mxCell id="79" value="+ method(type): type" style="text;strokeColor=none;fillColor=none;align=left;verticalAlign=top;spacingLeft=4;spacingRight=4;overflow=hidden;rotatable=0;points=[[0,0.5],[1,0.5]];portConstraint=eastwest;" parent="76" vertex="1">
                    <mxGeometry y="60" width="160" height="26" as="geometry"/>
                </mxCell>
                <mxCell id="80" value="" style="endArrow=block;dashed=1;endFill=0;endSize=12;html=1;edgeStyle=orthogonalEdgeStyle;" parent="1" source="72" target="68" edge="1">
                    <mxGeometry width="160" relative="1" as="geometry">
                        <mxPoint x="-330" y="-390" as="sourcePoint"/>
                        <mxPoint x="-170" y="-390" as="targetPoint"/>
                        <Array as="points">
                            <mxPoint x="-690" y="-970"/>
                            <mxPoint x="-690" y="-930"/>
                        </Array>
                    </mxGeometry>
                </mxCell>
                <mxCell id="81" value="" style="endArrow=block;dashed=1;endFill=0;endSize=12;html=1;edgeStyle=orthogonalEdgeStyle;" parent="1" source="76" target="68" edge="1">
                    <mxGeometry width="160" relative="1" as="geometry">
                        <mxPoint x="-220" y="-340" as="sourcePoint"/>
                        <mxPoint x="-90" y="-414" as="targetPoint"/>
                        <Array as="points">
                            <mxPoint x="-690" y="-830"/>
                            <mxPoint x="-690" y="-930"/>
                        </Array>
                    </mxGeometry>
                </mxCell>
                <mxCell id="83" value="" style="endArrow=diamondThin;endFill=1;endSize=24;html=1;edgeStyle=orthogonalEdgeStyle;" parent="1" source="102" target="158" edge="1">
                    <mxGeometry width="160" relative="1" as="geometry">
                        <mxPoint x="-30" y="410" as="sourcePoint"/>
                        <mxPoint x="130" y="410" as="targetPoint"/>
                    </mxGeometry>
                </mxCell>
                <mxCell id="84" value="" style="endArrow=diamondThin;endFill=1;endSize=24;html=1;edgeStyle=orthogonalEdgeStyle;" parent="1" source="46" target="112" edge="1">
                    <mxGeometry width="160" relative="1" as="geometry">
                        <mxPoint x="-20" y="430" as="sourcePoint"/>
                        <mxPoint x="140" y="430" as="targetPoint"/>
                        <Array as="points">
                            <mxPoint x="-390" y="-720"/>
                            <mxPoint x="-390" y="-615"/>
                        </Array>
                    </mxGeometry>
                </mxCell>
                <mxCell id="85" value="" style="endArrow=diamondThin;endFill=1;endSize=24;html=1;entryX=1;entryY=0.5;entryDx=0;entryDy=0;edgeStyle=orthogonalEdgeStyle;" parent="1" source="34" target="144" edge="1">
                    <mxGeometry width="160" relative="1" as="geometry">
                        <mxPoint x="-10" y="430" as="sourcePoint"/>
                        <mxPoint x="150" y="430" as="targetPoint"/>
                        <Array as="points">
                            <mxPoint x="2340" y="-380"/>
                            <mxPoint x="2340" y="25"/>
                        </Array>
                    </mxGeometry>
                </mxCell>
                <mxCell id="86" value="" style="endArrow=diamondThin;endFill=1;endSize=24;html=1;entryX=1;entryY=0.5;entryDx=0;entryDy=0;edgeStyle=orthogonalEdgeStyle;" parent="1" source="38" target="23" edge="1">
                    <mxGeometry width="160" relative="1" as="geometry">
                        <mxPoint x="210" y="440" as="sourcePoint"/>
                        <mxPoint x="370" y="440" as="targetPoint"/>
                        <Array as="points">
                            <mxPoint x="2970" y="-355"/>
                            <mxPoint x="2970" y="-1"/>
                        </Array>
                    </mxGeometry>
                </mxCell>
                <mxCell id="87" value="Timer" style="swimlane;fontStyle=1;align=center;verticalAlign=top;childLayout=stackLayout;horizontal=1;startSize=26;horizontalStack=0;resizeParent=1;resizeParentMax=0;resizeLast=0;collapsible=1;marginBottom=0;fillColor=#CCFFE6;" parent="1" vertex="1">
                    <mxGeometry x="-850" y="-606" width="160" height="86" as="geometry"/>
                </mxCell>
                <mxCell id="88" value="+ field: type" style="text;strokeColor=none;fillColor=none;align=left;verticalAlign=top;spacingLeft=4;spacingRight=4;overflow=hidden;rotatable=0;points=[[0,0.5],[1,0.5]];portConstraint=eastwest;" parent="87" vertex="1">
                    <mxGeometry y="26" width="160" height="26" as="geometry"/>
                </mxCell>
                <mxCell id="89" value="" style="line;strokeWidth=1;fillColor=none;align=left;verticalAlign=middle;spacingTop=-1;spacingLeft=3;spacingRight=3;rotatable=0;labelPosition=right;points=[];portConstraint=eastwest;" parent="87" vertex="1">
                    <mxGeometry y="52" width="160" height="8" as="geometry"/>
                </mxCell>
                <mxCell id="90" value="+ method(type): type" style="text;strokeColor=none;fillColor=none;align=left;verticalAlign=top;spacingLeft=4;spacingRight=4;overflow=hidden;rotatable=0;points=[[0,0.5],[1,0.5]];portConstraint=eastwest;" parent="87" vertex="1">
                    <mxGeometry y="60" width="160" height="26" as="geometry"/>
                </mxCell>
                <mxCell id="91" value="" style="endArrow=diamondThin;endFill=0;endSize=24;html=1;entryX=0;entryY=0.5;entryDx=0;entryDy=0;edgeStyle=orthogonalEdgeStyle;" parent="1" source="87" target="156" edge="1">
                    <mxGeometry width="160" relative="1" as="geometry">
                        <mxPoint x="180" y="920" as="sourcePoint"/>
                        <mxPoint x="340" y="920" as="targetPoint"/>
                    </mxGeometry>
                </mxCell>
                <mxCell id="102" value="EventLoopThreadPool" style="swimlane;fontStyle=1;align=center;verticalAlign=top;childLayout=stackLayout;horizontal=1;startSize=26;horizontalStack=0;resizeParent=1;resizeParentMax=0;resizeLast=0;collapsible=1;marginBottom=0;fillColor=#CCFFE6;" parent="1" vertex="1">
                    <mxGeometry x="1690" y="270" width="180" height="86" as="geometry"/>
                </mxCell>
                <mxCell id="103" value="+ field: type" style="text;strokeColor=none;fillColor=none;align=left;verticalAlign=top;spacingLeft=4;spacingRight=4;overflow=hidden;rotatable=0;points=[[0,0.5],[1,0.5]];portConstraint=eastwest;" parent="102" vertex="1">
                    <mxGeometry y="26" width="180" height="26" as="geometry"/>
                </mxCell>
                <mxCell id="104" value="" style="line;strokeWidth=1;fillColor=none;align=left;verticalAlign=middle;spacingTop=-1;spacingLeft=3;spacingRight=3;rotatable=0;labelPosition=right;points=[];portConstraint=eastwest;" parent="102" vertex="1">
                    <mxGeometry y="52" width="180" height="8" as="geometry"/>
                </mxCell>
                <mxCell id="105" value="+ method(type): type" style="text;strokeColor=none;fillColor=none;align=left;verticalAlign=top;spacingLeft=4;spacingRight=4;overflow=hidden;rotatable=0;points=[[0,0.5],[1,0.5]];portConstraint=eastwest;" parent="102" vertex="1">
                    <mxGeometry y="60" width="180" height="26" as="geometry"/>
                </mxCell>
                <mxCell id="122" value="" style="endArrow=diamondThin;endFill=1;endSize=24;html=1;fillColor=#CCE5FF;edgeStyle=orthogonalEdgeStyle;" parent="1" source="30" target="69" edge="1">
                    <mxGeometry width="160" relative="1" as="geometry">
                        <mxPoint x="130" y="-960" as="sourcePoint"/>
                        <mxPoint x="-150" y="-779" as="targetPoint"/>
                        <Array as="points">
                            <mxPoint x="190" y="-760"/>
                            <mxPoint x="190" y="-901"/>
                        </Array>
                    </mxGeometry>
                </mxCell>
                <mxCell id="124" style="edgeStyle=orthogonalEdgeStyle;rounded=0;orthogonalLoop=1;jettySize=auto;html=1;fillColor=#CCE5FF;dashed=1" parent="1" source="123" target="113" edge="1">
                    <mxGeometry relative="1" as="geometry">
                        <Array as="points">
                            <mxPoint x="140" y="-580"/>
                        </Array>
                    </mxGeometry>
                </mxCell>
                <mxCell id="123" value="wakeup for new call back or quit" style="text;html=1;align=center;verticalAlign=middle;resizable=0;points=[];autosize=1;strokeColor=none;" parent="1" vertex="1">
                    <mxGeometry x="160" y="-573" width="190" height="20" as="geometry"/>
                </mxCell>
                <mxCell id="130" value="owns" style="edgeStyle=orthogonalEdgeStyle;rounded=0;orthogonalLoop=1;jettySize=auto;html=1;entryX=0.5;entryY=0;entryDx=0;entryDy=0;fillColor=#CCE5FF;" parent="1" source="127" target="57" edge="1">
                    <mxGeometry relative="1" as="geometry">
                        <Array as="points">
                            <mxPoint x="500" y="-570"/>
                            <mxPoint x="500" y="-570"/>
                        </Array>
                    </mxGeometry>
                </mxCell>
                <mxCell id="131" style="edgeStyle=orthogonalEdgeStyle;rounded=0;orthogonalLoop=1;jettySize=auto;html=1;fillColor=#CCE5FF;" parent="1" source="127" target="31" edge="1">
                    <mxGeometry relative="1" as="geometry">
                        <Array as="points">
                            <mxPoint x="500" y="-741"/>
                        </Array>
                    </mxGeometry>
                </mxCell>
                <mxCell id="127" value="File Descriptor" style="html=1;strokeColor=#000000;fillColor=#CCFFE6;" parent="1" vertex="1">
                    <mxGeometry x="440" y="-583" width="120" height="40" as="geometry"/>
                </mxCell>
                <mxCell id="143" value="" style="endArrow=diamondThin;endFill=0;endSize=24;html=1;fillColor=#CCE5FF;entryX=0;entryY=0.5;entryDx=0;entryDy=0;edgeStyle=orthogonalEdgeStyle;" parent="1" source="18" target="27" edge="1">
                    <mxGeometry width="160" relative="1" as="geometry">
                        <mxPoint x="1470" y="20" as="sourcePoint"/>
                        <mxPoint x="1630" y="20" as="targetPoint"/>
                        <Array as="points">
                            <mxPoint x="1800" y="-270"/>
                            <mxPoint x="1800" y="-1"/>
                        </Array>
                    </mxGeometry>
                </mxCell>
                <mxCell id="147" value="" style="endArrow=diamondThin;endFill=0;endSize=24;html=1;fillColor=#CCE5FF;edgeStyle=orthogonalEdgeStyle;entryX=0;entryY=0.5;entryDx=0;entryDy=0;" parent="1" source="18" target="146" edge="1">
                    <mxGeometry width="160" relative="1" as="geometry">
                        <mxPoint x="1710" y="-260" as="sourcePoint"/>
                        <mxPoint x="2460" y="9" as="targetPoint"/>
                        <Array as="points">
                            <mxPoint x="2450" y="-270"/>
                            <mxPoint x="2450" y="25"/>
                        </Array>
                    </mxGeometry>
                </mxCell>
                <mxCell id="163" value=":Client" style="shape=umlLifeline;perimeter=lifelinePerimeter;whiteSpace=wrap;html=1;container=1;collapsible=0;recursiveResize=0;outlineConnect=0;strokeColor=#000000;fillColor=none;" parent="1" vertex="1">
                    <mxGeometry x="2070" y="600" width="100" height="3000" as="geometry"/>
                </mxCell>
                <mxCell id="164" value=":TcpClient&lt;br&gt;EventLoop" style="shape=umlLifeline;perimeter=lifelinePerimeter;whiteSpace=wrap;html=1;container=1;collapsible=0;recursiveResize=0;outlineConnect=0;strokeColor=#000000;fillColor=none;" parent="1" vertex="1">
                    <mxGeometry x="2950" y="600" width="100" height="3000" as="geometry"/>
                </mxCell>
                <mxCell id="173" style="edgeStyle=orthogonalEdgeStyle;rounded=0;orthogonalLoop=1;jettySize=auto;html=1;exitX=0.25;exitY=1;exitDx=0;exitDy=0;entryX=0;entryY=0.5;entryDx=0;entryDy=0;fillColor=#CCE5FF;" parent="1" source="165" target="172" edge="1">
                    <mxGeometry relative="1" as="geometry"/>
                </mxCell>
                <mxCell id="165" value="TcpClient::connect()" style="html=1;strokeColor=#000000;fillColor=none;" parent="1" vertex="1">
                    <mxGeometry x="2040" y="720" width="160" height="40" as="geometry"/>
                </mxCell>
                <mxCell id="175" style="edgeStyle=orthogonalEdgeStyle;rounded=0;orthogonalLoop=1;jettySize=auto;html=1;exitX=0.25;exitY=1;exitDx=0;exitDy=0;entryX=0;entryY=0.5;entryDx=0;entryDy=0;fillColor=#CCE5FF;" parent="1" source="172" target="174" edge="1">
                    <mxGeometry relative="1" as="geometry"/>
                </mxCell>
                <mxCell id="172" value="Connector::start()" style="html=1;strokeColor=#000000;fillColor=none;" parent="1" vertex="1">
                    <mxGeometry x="2110" y="780" width="160" height="40" as="geometry"/>
                </mxCell>
                <mxCell id="177" style="edgeStyle=orthogonalEdgeStyle;rounded=0;orthogonalLoop=1;jettySize=auto;html=1;exitX=0.25;exitY=1;exitDx=0;exitDy=0;entryX=0;entryY=0.5;entryDx=0;entryDy=0;fillColor=#CCE5FF;" parent="1" source="174" target="176" edge="1">
                    <mxGeometry relative="1" as="geometry"/>
                </mxCell>
                <mxCell id="174" value="EventLoop::runInLoop()" style="html=1;strokeColor=#000000;fillColor=none;" parent="1" vertex="1">
                    <mxGeometry x="2180" y="840" width="160" height="40" as="geometry"/>
                </mxCell>
                <mxCell id="180" style="edgeStyle=orthogonalEdgeStyle;rounded=0;orthogonalLoop=1;jettySize=auto;html=1;exitX=0.25;exitY=1;exitDx=0;exitDy=0;entryX=0;entryY=0.5;entryDx=0;entryDy=0;fillColor=#CCE5FF;" parent="1" source="176" target="178" edge="1">
                    <mxGeometry relative="1" as="geometry"/>
                </mxCell>
                <mxCell id="183" style="edgeStyle=orthogonalEdgeStyle;rounded=0;orthogonalLoop=1;jettySize=auto;html=1;exitX=0.25;exitY=1;exitDx=0;exitDy=0;entryX=0;entryY=0.5;entryDx=0;entryDy=0;fillColor=#CCE5FF;" parent="1" source="176" target="181" edge="1">
                    <mxGeometry relative="1" as="geometry"/>
                </mxCell>
                <mxCell id="176" value="EventLoop::queueInLoop()" style="html=1;strokeColor=#000000;fillColor=none;" parent="1" vertex="1">
                    <mxGeometry x="2250" y="900" width="160" height="40" as="geometry"/>
                </mxCell>
                <mxCell id="178" value="pendingFunctors_.push_back()" style="html=1;strokeColor=#000000;fillColor=none;" parent="1" vertex="1">
                    <mxGeometry x="2320" y="960" width="190" height="40" as="geometry"/>
                </mxCell>
                <mxCell id="206" style="edgeStyle=orthogonalEdgeStyle;rounded=0;orthogonalLoop=1;jettySize=auto;html=1;entryX=0;entryY=0.5;entryDx=0;entryDy=0;fillColor=#CCE5FF;dashed=1" parent="1" source="181" target="203" edge="1">
                    <mxGeometry relative="1" as="geometry"/>
                </mxCell>
                <mxCell id="207" value="wake up" style="edgeLabel;html=1;align=center;verticalAlign=middle;resizable=0;points=[];" parent="206" vertex="1" connectable="0">
                    <mxGeometry x="0.0521" y="-1" relative="1" as="geometry">
                        <mxPoint as="offset"/>
                    </mxGeometry>
                </mxCell>
                <mxCell id="181" value="EventLoop::wakeup()" style="html=1;strokeColor=#000000;fillColor=none;" parent="1" vertex="1">
                    <mxGeometry x="2320" y="1020" width="140" height="40" as="geometry"/>
                </mxCell>
                <mxCell id="186" style="edgeStyle=orthogonalEdgeStyle;rounded=0;orthogonalLoop=1;jettySize=auto;html=1;entryX=0.75;entryY=0;entryDx=0;entryDy=0;fillColor=#CCE5FF;dashed=1" parent="1" source="184" target="174" edge="1">
                    <mxGeometry relative="1" as="geometry"/>
                </mxCell>
                <mxCell id="184" value="&lt;div&gt;Connector::startInLoop()&lt;/div&gt;" style="html=1;strokeColor=#000000;fillColor=none;" parent="1" vertex="1">
                    <mxGeometry x="2420" y="790" width="160" height="40" as="geometry"/>
                </mxCell>
                <mxCell id="192" style="edgeStyle=orthogonalEdgeStyle;rounded=0;orthogonalLoop=1;jettySize=auto;html=1;exitX=0.25;exitY=1;exitDx=0;exitDy=0;entryX=0;entryY=0.5;entryDx=0;entryDy=0;fillColor=#CCE5FF;" parent="1" source="187" target="190" edge="1">
                    <mxGeometry relative="1" as="geometry"/>
                </mxCell>
                <mxCell id="246" style="edgeStyle=orthogonalEdgeStyle;rounded=0;orthogonalLoop=1;jettySize=auto;html=1;exitX=0.25;exitY=1;exitDx=0;exitDy=0;entryX=0;entryY=0.5;entryDx=0;entryDy=0;" edge="1" parent="1" source="187" target="193">
                    <mxGeometry relative="1" as="geometry"/>
                </mxCell>
                <mxCell id="187" value="&lt;div&gt;EventLoop::EventLoop()&lt;/div&gt;" style="html=1;strokeColor=#000000;fillColor=none;" parent="1" vertex="1">
                    <mxGeometry x="2920" y="680" width="160" height="40" as="geometry"/>
                </mxCell>
                <mxCell id="190" value="&lt;div&gt;new Channel(this, wakeupFd_)&lt;/div&gt;" style="html=1;strokeColor=#000000;fillColor=none;" parent="1" vertex="1">
                    <mxGeometry x="2990" y="740" width="200" height="40" as="geometry"/>
                </mxCell>
                <mxCell id="198" style="edgeStyle=orthogonalEdgeStyle;rounded=0;orthogonalLoop=1;jettySize=auto;html=1;exitX=0.25;exitY=1;exitDx=0;exitDy=0;entryX=0;entryY=0.5;entryDx=0;entryDy=0;fillColor=#CCE5FF;" parent="1" source="193" target="196" edge="1">
                    <mxGeometry relative="1" as="geometry"/>
                </mxCell>
                <mxCell id="193" value="&lt;div&gt;wakeupChannel_-&amp;gt;enableReading()&lt;/div&gt;" style="html=1;strokeColor=#000000;fillColor=none;" parent="1" vertex="1">
                    <mxGeometry x="2990" y="800" width="210" height="40" as="geometry"/>
                </mxCell>
                <mxCell id="196" value="&lt;div&gt;loop_-&amp;gt;updateChannel(this)&lt;/div&gt;" style="html=1;strokeColor=#000000;fillColor=none;" parent="1" vertex="1">
                    <mxGeometry x="3080" y="860" width="170" height="40" as="geometry"/>
                </mxCell>
                <mxCell id="200" style="edgeStyle=orthogonalEdgeStyle;rounded=0;orthogonalLoop=1;jettySize=auto;html=1;fillColor=#CCE5FF;dashed=1;entryX=1;entryY=0.25;entryDx=0;entryDy=0;" parent="1" source="199" target="196" edge="1">
                    <mxGeometry relative="1" as="geometry"/>
                </mxCell>
                <mxCell id="199" value="add wakeupChannel_ into poller_,&lt;br&gt;so that, the poller_-&amp;gt;poll can be waked up by EventLoop::wakeup()" style="text;html=1;align=center;verticalAlign=middle;resizable=0;points=[];autosize=1;strokeColor=none;align=left" parent="1" vertex="1">
                    <mxGeometry x="3320" y="845" width="370" height="30" as="geometry"/>
                </mxCell>
                <mxCell id="205" value="block on" style="edgeStyle=orthogonalEdgeStyle;rounded=0;orthogonalLoop=1;jettySize=auto;html=1;exitX=0.25;exitY=1;exitDx=0;exitDy=0;entryX=0;entryY=0.25;entryDx=0;entryDy=0;fillColor=#CCE5FF;" parent="1" source="201" target="203" edge="1">
                    <mxGeometry x="-0.1429" relative="1" as="geometry">
                        <mxPoint as="offset"/>
                    </mxGeometry>
                </mxCell>
                <mxCell id="210" style="edgeStyle=orthogonalEdgeStyle;rounded=0;orthogonalLoop=1;jettySize=auto;html=1;exitX=0.25;exitY=1;exitDx=0;exitDy=0;entryX=0;entryY=0.5;entryDx=0;entryDy=0;fillColor=#CCE5FF;" parent="1" source="201" target="208" edge="1">
                    <mxGeometry relative="1" as="geometry"/>
                </mxCell>
                <mxCell id="252" style="edgeStyle=orthogonalEdgeStyle;rounded=0;orthogonalLoop=1;jettySize=auto;html=1;exitX=0.25;exitY=1;exitDx=0;exitDy=0;entryX=0;entryY=0.5;entryDx=0;entryDy=0;" edge="1" parent="1" source="201" target="251">
                    <mxGeometry relative="1" as="geometry"/>
                </mxCell>
                <mxCell id="253" value="connected" style="edgeLabel;html=1;align=center;verticalAlign=middle;resizable=0;points=[];" vertex="1" connectable="0" parent="252">
                    <mxGeometry x="0.7353" y="-2" relative="1" as="geometry">
                        <mxPoint y="97" as="offset"/>
                    </mxGeometry>
                </mxCell>
                <mxCell id="259" value="block on" style="edgeLabel;html=1;align=center;verticalAlign=middle;resizable=0;points=[];" vertex="1" connectable="0" parent="252">
                    <mxGeometry x="0.909" relative="1" as="geometry">
                        <mxPoint as="offset"/>
                    </mxGeometry>
                </mxCell>
                <mxCell id="258" style="edgeStyle=orthogonalEdgeStyle;rounded=0;orthogonalLoop=1;jettySize=auto;html=1;exitX=0.25;exitY=1;exitDx=0;exitDy=0;entryX=0;entryY=0.5;entryDx=0;entryDy=0;" edge="1" parent="1" source="201" target="256">
                    <mxGeometry relative="1" as="geometry"/>
                </mxCell>
                <mxCell id="201" value="&lt;div&gt;EventLoop::loop()&lt;/div&gt;" style="html=1;strokeColor=#000000;fillColor=none;" parent="1" vertex="1">
                    <mxGeometry x="2920" y="960" width="160" height="40" as="geometry"/>
                </mxCell>
                <mxCell id="203" value="&lt;div&gt;poller_-&amp;gt;poll()&lt;/div&gt;" style="html=1;strokeColor=#000000;fillColor=none;" parent="1" vertex="1">
                    <mxGeometry x="3000" y="1020" width="160" height="40" as="geometry"/>
                </mxCell>
                <mxCell id="212" style="edgeStyle=orthogonalEdgeStyle;rounded=0;orthogonalLoop=1;jettySize=auto;html=1;exitX=0.25;exitY=1;exitDx=0;exitDy=0;entryX=0;entryY=0.5;entryDx=0;entryDy=0;fillColor=#CCE5FF;" parent="1" source="208" target="211" edge="1">
                    <mxGeometry relative="1" as="geometry"/>
                </mxCell>
                <mxCell id="208" value="&lt;div&gt;EventLoop::doPendingFunctors()&lt;/div&gt;" style="html=1;strokeColor=#000000;fillColor=none;" parent="1" vertex="1">
                    <mxGeometry x="3000" y="1080" width="200" height="40" as="geometry"/>
                </mxCell>
                <mxCell id="214" style="edgeStyle=orthogonalEdgeStyle;rounded=0;orthogonalLoop=1;jettySize=auto;html=1;entryX=0;entryY=0.25;entryDx=0;entryDy=0;fillColor=#CCE5FF;exitX=0.75;exitY=1;exitDx=0;exitDy=0;dashed=1" parent="1" source="184" target="211" edge="1">
                    <mxGeometry relative="1" as="geometry">
                        <Array as="points">
                            <mxPoint x="2540" y="1150"/>
                        </Array>
                    </mxGeometry>
                </mxCell>
                <mxCell id="217" style="edgeStyle=orthogonalEdgeStyle;rounded=0;orthogonalLoop=1;jettySize=auto;html=1;exitX=0.25;exitY=1;exitDx=0;exitDy=0;entryX=0;entryY=0.5;entryDx=0;entryDy=0;fillColor=#CCE5FF;" parent="1" source="211" target="215" edge="1">
                    <mxGeometry relative="1" as="geometry"/>
                </mxCell>
                <mxCell id="211" value="&lt;div&gt;call - Connector::startInLoop()&lt;/div&gt;" style="html=1;strokeColor=#000000;fillColor=none;" parent="1" vertex="1">
                    <mxGeometry x="3080" y="1140" width="190" height="40" as="geometry"/>
                </mxCell>
                <mxCell id="220" style="edgeStyle=orthogonalEdgeStyle;rounded=0;orthogonalLoop=1;jettySize=auto;html=1;exitX=0.25;exitY=1;exitDx=0;exitDy=0;entryX=0;entryY=0.5;entryDx=0;entryDy=0;" edge="1" parent="1" source="215" target="218">
                    <mxGeometry relative="1" as="geometry"/>
                </mxCell>
                <mxCell id="223" style="edgeStyle=orthogonalEdgeStyle;rounded=0;orthogonalLoop=1;jettySize=auto;html=1;exitX=0.25;exitY=1;exitDx=0;exitDy=0;entryX=0;entryY=0.5;entryDx=0;entryDy=0;" edge="1" parent="1" source="215" target="221">
                    <mxGeometry relative="1" as="geometry"/>
                </mxCell>
                <mxCell id="215" value="&lt;div&gt;Connector::connect()&lt;/div&gt;" style="html=1;strokeColor=#000000;fillColor=none;" parent="1" vertex="1">
                    <mxGeometry x="3160" y="1200" width="160" height="40" as="geometry"/>
                </mxCell>
                <mxCell id="218" value="&lt;div&gt;system call&lt;/div&gt;&lt;div&gt;sockets::createNonblockingOrDie()&lt;/div&gt;&lt;div&gt;sockets::connect()&lt;/div&gt;" style="html=1;strokeColor=#000000;fillColor=none;align=left" vertex="1" parent="1">
                    <mxGeometry x="3240" y="1260" width="220" height="40" as="geometry"/>
                </mxCell>
                <mxCell id="228" style="edgeStyle=orthogonalEdgeStyle;rounded=0;orthogonalLoop=1;jettySize=auto;html=1;exitX=0.25;exitY=1;exitDx=0;exitDy=0;entryX=0;entryY=0.5;entryDx=0;entryDy=0;" edge="1" parent="1" source="221" target="226">
                    <mxGeometry relative="1" as="geometry"/>
                </mxCell>
                <mxCell id="237" style="edgeStyle=orthogonalEdgeStyle;rounded=0;orthogonalLoop=1;jettySize=auto;html=1;exitX=0.25;exitY=1;exitDx=0;exitDy=0;entryX=0;entryY=0.5;entryDx=0;entryDy=0;" edge="1" parent="1" source="221" target="235">
                    <mxGeometry relative="1" as="geometry"/>
                </mxCell>
                <mxCell id="221" value="&lt;div&gt;Connector::connecting()&lt;/div&gt;" style="html=1;strokeColor=#000000;fillColor=none;" vertex="1" parent="1">
                    <mxGeometry x="3240" y="1320" width="160" height="40" as="geometry"/>
                </mxCell>
                <mxCell id="226" value="&lt;div&gt;&lt;div&gt;channel_.reset(new Channel(loop_, sockfd));&lt;/div&gt;&lt;div&gt;channel_-&amp;gt;setWriteCallback(std::bind(&amp;amp;Connector::handleWrite, this));&lt;/div&gt;&lt;div&gt;channel_-&amp;gt;setErrorCallback(std::bind(&amp;amp;Connector::handleError, this));&lt;/div&gt;&lt;/div&gt;" style="html=1;strokeColor=#000000;fillColor=none;align=left" vertex="1" parent="1">
                    <mxGeometry x="3320" y="1380" width="390" height="40" as="geometry"/>
                </mxCell>
                <mxCell id="230" style="edgeStyle=orthogonalEdgeStyle;rounded=0;orthogonalLoop=1;jettySize=auto;html=1;entryX=1;entryY=0.75;entryDx=0;entryDy=0;dashed=1" edge="1" parent="1" source="229" target="181">
                    <mxGeometry relative="1" as="geometry">
                        <Array as="points">
                            <mxPoint x="2500" y="1050"/>
                        </Array>
                    </mxGeometry>
                </mxCell>
                <mxCell id="229" value="wakeup can be called in the same thread with EventLoop::loop(), just before the call to EventLoop::loop()" style="text;html=1;align=center;verticalAlign=middle;resizable=0;points=[];autosize=1;strokeColor=none;" vertex="1" parent="1">
                    <mxGeometry x="2350" y="1090" width="570" height="20" as="geometry"/>
                </mxCell>
                <mxCell id="233" style="edgeStyle=orthogonalEdgeStyle;rounded=0;orthogonalLoop=1;jettySize=auto;html=1;entryX=1;entryY=0.25;entryDx=0;entryDy=0;dashed=1" edge="1" parent="1" source="232" target="226">
                    <mxGeometry relative="1" as="geometry"/>
                </mxCell>
                <mxCell id="232" value="Init Connector::channel_" style="text;html=1;align=center;verticalAlign=middle;resizable=0;points=[];autosize=1;strokeColor=none;" vertex="1" parent="1">
                    <mxGeometry x="3780" y="1380" width="150" height="20" as="geometry"/>
                </mxCell>
                <mxCell id="240" style="edgeStyle=orthogonalEdgeStyle;rounded=0;orthogonalLoop=1;jettySize=auto;html=1;exitX=0.25;exitY=1;exitDx=0;exitDy=0;entryX=0;entryY=0.5;entryDx=0;entryDy=0;" edge="1" parent="1" source="235" target="238">
                    <mxGeometry relative="1" as="geometry"/>
                </mxCell>
                <mxCell id="235" value="channel_-&amp;gt;enableWriting()" style="html=1;strokeColor=#000000;fillColor=none;align=left" vertex="1" parent="1">
                    <mxGeometry x="3320" y="1440" width="160" height="40" as="geometry"/>
                </mxCell>
                <mxCell id="245" style="edgeStyle=orthogonalEdgeStyle;rounded=0;orthogonalLoop=1;jettySize=auto;html=1;exitX=0.25;exitY=1;exitDx=0;exitDy=0;entryX=0;entryY=0.5;entryDx=0;entryDy=0;" edge="1" parent="1" source="238" target="242">
                    <mxGeometry relative="1" as="geometry"/>
                </mxCell>
                <mxCell id="238" value="&lt;div&gt;Channel::update()&lt;/div&gt;" style="html=1;strokeColor=#000000;fillColor=none;" vertex="1" parent="1">
                    <mxGeometry x="3400" y="1500" width="160" height="40" as="geometry"/>
                </mxCell>
                <mxCell id="242" value="&lt;div&gt;loop_-&amp;gt;updateChannel(this)&lt;/div&gt;" style="html=1;strokeColor=#000000;fillColor=none;" vertex="1" parent="1">
                    <mxGeometry x="3480" y="1560" width="170" height="40" as="geometry"/>
                </mxCell>
                <mxCell id="243" style="edgeStyle=orthogonalEdgeStyle;rounded=0;orthogonalLoop=1;jettySize=auto;html=1;fillColor=#CCE5FF;dashed=1;entryX=1;entryY=0.25;entryDx=0;entryDy=0;" edge="1" source="244" target="242" parent="1">
                    <mxGeometry relative="1" as="geometry"/>
                </mxCell>
                <mxCell id="244" value="add Connector::channel_ into poller_,&lt;br&gt;the poller_-&amp;gt;poll will return after connected" style="text;html=1;align=center;verticalAlign=middle;resizable=0;points=[];autosize=1;strokeColor=none;align=left" vertex="1" parent="1">
                    <mxGeometry x="3717.5" y="1545" width="240" height="30" as="geometry"/>
                </mxCell>
                <mxCell id="248" style="edgeStyle=orthogonalEdgeStyle;rounded=0;orthogonalLoop=1;jettySize=auto;html=1;exitX=0;exitY=0.5;exitDx=0;exitDy=0;entryX=1;entryY=0.25;entryDx=0;entryDy=0;dashed=1" edge="1" parent="1" source="247" target="190">
                    <mxGeometry relative="1" as="geometry"/>
                </mxCell>
                <mxCell id="247" value="EventLoop::&lt;span&gt;wakeupChannel_&lt;/span&gt;" style="rounded=1;whiteSpace=wrap;html=1;" vertex="1" parent="1">
                    <mxGeometry x="3290" y="710" width="120" height="60" as="geometry"/>
                </mxCell>
                <mxCell id="249" style="edgeStyle=orthogonalEdgeStyle;rounded=0;orthogonalLoop=1;jettySize=auto;html=1;exitX=0;exitY=0.5;exitDx=0;exitDy=0;entryX=0.75;entryY=0;entryDx=0;entryDy=0;dashed=1" edge="1" source="250" parent="1" target="226">
                    <mxGeometry relative="1" as="geometry">
                        <mxPoint x="3580" y="1340" as="targetPoint"/>
                    </mxGeometry>
                </mxCell>
                <mxCell id="250" value="&lt;span style=&quot;text-align: left&quot;&gt;Connector::channel_&lt;/span&gt;" style="rounded=1;whiteSpace=wrap;html=1;" vertex="1" parent="1">
                    <mxGeometry x="3730" y="1290" width="120" height="60" as="geometry"/>
                </mxCell>
                <mxCell id="251" value="&lt;div&gt;poller_-&amp;gt;poll()&lt;/div&gt;" style="html=1;strokeColor=#000000;fillColor=none;" vertex="1" parent="1">
                    <mxGeometry x="3000" y="1670" width="160" height="40" as="geometry"/>
                </mxCell>
                <mxCell id="255" style="edgeStyle=orthogonalEdgeStyle;rounded=0;orthogonalLoop=1;jettySize=auto;html=1;entryX=0.75;entryY=0;entryDx=0;entryDy=0;dashed=1" edge="1" parent="1" source="254" target="218">
                    <mxGeometry relative="1" as="geometry"/>
                </mxCell>
                <mxCell id="315" style="edgeStyle=orthogonalEdgeStyle;rounded=0;orthogonalLoop=1;jettySize=auto;html=1;entryX=1;entryY=0.25;entryDx=0;entryDy=0;" edge="1" parent="1" source="254" target="316">
                    <mxGeometry relative="1" as="geometry">
                        <Array as="points">
                            <mxPoint x="4220" y="1220"/>
                            <mxPoint x="4220" y="2310"/>
                        </Array>
                    </mxGeometry>
                </mxCell>
                <mxCell id="254" value="&lt;span style=&quot;text-align: left&quot;&gt;Connector::channel_::fd_&lt;/span&gt;" style="rounded=1;whiteSpace=wrap;html=1;" vertex="1" parent="1">
                    <mxGeometry x="3550" y="1190" width="120" height="60" as="geometry"/>
                </mxCell>
                <mxCell id="262" style="edgeStyle=orthogonalEdgeStyle;rounded=0;orthogonalLoop=1;jettySize=auto;html=1;exitX=0.25;exitY=1;exitDx=0;exitDy=0;entryX=0;entryY=0.5;entryDx=0;entryDy=0;" edge="1" parent="1" source="256" target="260">
                    <mxGeometry relative="1" as="geometry"/>
                </mxCell>
                <mxCell id="256" value="&lt;span style=&quot;text-align: left&quot;&gt;Connector::channel_::handleEvent()&lt;/span&gt;" style="html=1;strokeColor=#000000;fillColor=none;" vertex="1" parent="1">
                    <mxGeometry x="3000" y="1730" width="240" height="40" as="geometry"/>
                </mxCell>
                <mxCell id="265" style="edgeStyle=orthogonalEdgeStyle;rounded=0;orthogonalLoop=1;jettySize=auto;html=1;exitX=0.25;exitY=1;exitDx=0;exitDy=0;entryX=0;entryY=0.5;entryDx=0;entryDy=0;" edge="1" parent="1" source="260" target="263">
                    <mxGeometry relative="1" as="geometry"/>
                </mxCell>
                <mxCell id="260" value="&lt;div style=&quot;text-align: left&quot;&gt;&lt;span&gt;Channel::handleEventWithGuard()&lt;/span&gt;&lt;/div&gt;" style="html=1;strokeColor=#000000;fillColor=none;" vertex="1" parent="1">
                    <mxGeometry x="3080" y="1790" width="200" height="40" as="geometry"/>
                </mxCell>
                <mxCell id="267" value="" style="edgeStyle=orthogonalEdgeStyle;rounded=0;orthogonalLoop=1;jettySize=auto;html=1;" edge="1" parent="1" source="263" target="266">
                    <mxGeometry relative="1" as="geometry"/>
                </mxCell>
                <mxCell id="263" value="&lt;div style=&quot;text-align: left&quot;&gt;Channel::writeCallback_&lt;br&gt;&lt;/div&gt;" style="html=1;strokeColor=#000000;fillColor=none;" vertex="1" parent="1">
                    <mxGeometry x="3160" y="1850" width="160" height="40" as="geometry"/>
                </mxCell>
                <mxCell id="270" style="edgeStyle=orthogonalEdgeStyle;rounded=0;orthogonalLoop=1;jettySize=auto;html=1;exitX=0.25;exitY=1;exitDx=0;exitDy=0;entryX=0;entryY=0.5;entryDx=0;entryDy=0;" edge="1" parent="1" source="266" target="268">
                    <mxGeometry relative="1" as="geometry"/>
                </mxCell>
                <mxCell id="276" style="edgeStyle=orthogonalEdgeStyle;rounded=0;orthogonalLoop=1;jettySize=auto;html=1;exitX=0.25;exitY=1;exitDx=0;exitDy=0;entryX=0;entryY=0.5;entryDx=0;entryDy=0;" edge="1" parent="1" source="266" target="274">
                    <mxGeometry relative="1" as="geometry"/>
                </mxCell>
                <mxCell id="266" value="&lt;div style=&quot;text-align: left&quot;&gt;Connector::handleWrite()&lt;br&gt;&lt;/div&gt;" style="html=1;strokeColor=#000000;fillColor=none;" vertex="1" parent="1">
                    <mxGeometry x="3360" y="1850" width="160" height="40" as="geometry"/>
                </mxCell>
                <mxCell id="283" style="edgeStyle=orthogonalEdgeStyle;rounded=0;orthogonalLoop=1;jettySize=auto;html=1;exitX=0.25;exitY=1;exitDx=0;exitDy=0;entryX=0;entryY=0.5;entryDx=0;entryDy=0;" edge="1" parent="1" source="268" target="282">
                    <mxGeometry relative="1" as="geometry"/>
                </mxCell>
                <mxCell id="285" style="edgeStyle=orthogonalEdgeStyle;rounded=0;orthogonalLoop=1;jettySize=auto;html=1;exitX=0.25;exitY=1;exitDx=0;exitDy=0;entryX=0;entryY=0.5;entryDx=0;entryDy=0;" edge="1" parent="1" source="268" target="284">
                    <mxGeometry relative="1" as="geometry"/>
                </mxCell>
                <mxCell id="288" style="edgeStyle=orthogonalEdgeStyle;rounded=0;orthogonalLoop=1;jettySize=auto;html=1;exitX=0.25;exitY=1;exitDx=0;exitDy=0;entryX=0;entryY=0.5;entryDx=0;entryDy=0;" edge="1" parent="1" source="268" target="287">
                    <mxGeometry relative="1" as="geometry"/>
                </mxCell>
                <mxCell id="268" value="&lt;div style=&quot;text-align: left&quot;&gt;Connector::removeAndResetChannel()&lt;br&gt;&lt;/div&gt;" style="html=1;strokeColor=#000000;fillColor=none;" vertex="1" parent="1">
                    <mxGeometry x="3440" y="1910" width="240" height="40" as="geometry"/>
                </mxCell>
                <mxCell id="272" style="edgeStyle=orthogonalEdgeStyle;rounded=0;orthogonalLoop=1;jettySize=auto;html=1;fillColor=#CCE5FF;dashed=1;entryX=1;entryY=0.25;entryDx=0;entryDy=0;" edge="1" source="273" parent="1" target="282">
                    <mxGeometry relative="1" as="geometry">
                        <mxPoint x="3742.5" y="1905" as="targetPoint"/>
                    </mxGeometry>
                </mxCell>
                <mxCell id="273" value="epoll&amp;nbsp;EPOLL_CTL_DEL" style="text;html=1;align=center;verticalAlign=middle;resizable=0;points=[];autosize=1;strokeColor=none;align=left" vertex="1" parent="1">
                    <mxGeometry x="3790" y="1955" width="140" height="20" as="geometry"/>
                </mxCell>
                <mxCell id="278" value="" style="edgeStyle=orthogonalEdgeStyle;rounded=0;orthogonalLoop=1;jettySize=auto;html=1;" edge="1" parent="1" source="274" target="277">
                    <mxGeometry relative="1" as="geometry"/>
                </mxCell>
                <mxCell id="274" value="&lt;div style=&quot;text-align: left&quot;&gt;Connector::newConnectionCallback_&lt;br&gt;&lt;/div&gt;" style="html=1;strokeColor=#000000;fillColor=none;" vertex="1" parent="1">
                    <mxGeometry x="3440" y="2180" width="240" height="40" as="geometry"/>
                </mxCell>
                <mxCell id="280" style="edgeStyle=orthogonalEdgeStyle;rounded=0;orthogonalLoop=1;jettySize=auto;html=1;exitX=0.25;exitY=1;exitDx=0;exitDy=0;entryX=0;entryY=0.5;entryDx=0;entryDy=0;" edge="1" parent="1" source="277" target="279">
                    <mxGeometry relative="1" as="geometry"/>
                </mxCell>
                <mxCell id="295" style="edgeStyle=orthogonalEdgeStyle;rounded=0;orthogonalLoop=1;jettySize=auto;html=1;exitX=0.25;exitY=1;exitDx=0;exitDy=0;entryX=0;entryY=0.5;entryDx=0;entryDy=0;" edge="1" parent="1" source="277" target="293">
                    <mxGeometry relative="1" as="geometry"/>
                </mxCell>
                <mxCell id="298" style="edgeStyle=orthogonalEdgeStyle;rounded=0;orthogonalLoop=1;jettySize=auto;html=1;exitX=0.25;exitY=1;exitDx=0;exitDy=0;entryX=0;entryY=0.5;entryDx=0;entryDy=0;" edge="1" parent="1" source="277" target="296">
                    <mxGeometry relative="1" as="geometry"/>
                </mxCell>
                <mxCell id="277" value="&lt;div style=&quot;text-align: left&quot;&gt;TcpClient::newConnection()&lt;br&gt;&lt;/div&gt;" style="html=1;strokeColor=#000000;fillColor=none;" vertex="1" parent="1">
                    <mxGeometry x="3720" y="2180" width="200" height="40" as="geometry"/>
                </mxCell>
                <mxCell id="319" style="edgeStyle=orthogonalEdgeStyle;rounded=0;orthogonalLoop=1;jettySize=auto;html=1;exitX=0.25;exitY=1;exitDx=0;exitDy=0;entryX=0;entryY=0.5;entryDx=0;entryDy=0;" edge="1" parent="1" source="279" target="316">
                    <mxGeometry relative="1" as="geometry"/>
                </mxCell>
                <mxCell id="279" value="new TcpConnection()" style="html=1;strokeColor=#000000;fillColor=none;" vertex="1" parent="1">
                    <mxGeometry x="3810" y="2240" width="160" height="40" as="geometry"/>
                </mxCell>
                <mxCell id="282" value="&lt;div style=&quot;text-align: left&quot;&gt;channel_::disableAll()&lt;br&gt;&lt;/div&gt;" style="html=1;strokeColor=#000000;fillColor=none;" vertex="1" parent="1">
                    <mxGeometry x="3540" y="1970" width="180" height="40" as="geometry"/>
                </mxCell>
                <mxCell id="284" value="&lt;div style=&quot;text-align: left&quot;&gt;channel_::remove()&lt;br&gt;&lt;/div&gt;" style="html=1;strokeColor=#000000;fillColor=none;" vertex="1" parent="1">
                    <mxGeometry x="3540" y="2030" width="180" height="40" as="geometry"/>
                </mxCell>
                <mxCell id="287" value="loop_-&amp;gt;queueInLoop(std::bind(&amp;amp;Connector::resetChannel, this))" style="html=1;strokeColor=#000000;fillColor=none;align=left;fontStyle=0" vertex="1" parent="1">
                    <mxGeometry x="3540" y="2090" width="350" height="40" as="geometry"/>
                </mxCell>
                <mxCell id="289" style="edgeStyle=orthogonalEdgeStyle;rounded=0;orthogonalLoop=1;jettySize=auto;html=1;fillColor=#CCE5FF;dashed=1;entryX=1;entryY=0.25;entryDx=0;entryDy=0;" edge="1" parent="1" source="290" target="284">
                    <mxGeometry relative="1" as="geometry">
                        <mxPoint x="3690" y="1930" as="targetPoint"/>
                    </mxGeometry>
                </mxCell>
                <mxCell id="290" value="EPollPoller::channels_.erase(fd)" style="text;html=1;align=center;verticalAlign=middle;resizable=0;points=[];autosize=1;strokeColor=none;align=left" vertex="1" parent="1">
                    <mxGeometry x="3795" y="2010" width="190" height="20" as="geometry"/>
                </mxCell>
                <mxCell id="291" style="edgeStyle=orthogonalEdgeStyle;rounded=0;orthogonalLoop=1;jettySize=auto;html=1;fillColor=#CCE5FF;dashed=1;entryX=1;entryY=0.25;entryDx=0;entryDy=0;" edge="1" parent="1" source="292" target="287">
                    <mxGeometry relative="1" as="geometry">
                        <mxPoint x="3700" y="1940" as="targetPoint"/>
                    </mxGeometry>
                </mxCell>
                <mxCell id="292" value="apped&amp;nbsp;channel_.reset() to loop_" style="text;html=1;align=center;verticalAlign=middle;resizable=0;points=[];autosize=1;strokeColor=none;align=left" vertex="1" parent="1">
                    <mxGeometry x="3980" y="2070" width="190" height="20" as="geometry"/>
                </mxCell>
                <mxCell id="293" value="&lt;div&gt;conn-&amp;gt;setConnectionCallback();&lt;/div&gt;&lt;div&gt;conn-&amp;gt;setMessageCallback();&lt;/div&gt;&lt;div&gt;conn-&amp;gt;setWriteCompleteCallback();&lt;/div&gt;&lt;div&gt;conn-&amp;gt;setCloseCallback();&lt;/div&gt;" style="html=1;strokeColor=#000000;fillColor=none;align=left" vertex="1" parent="1">
                    <mxGeometry x="3810" y="2380" width="200" height="80" as="geometry"/>
                </mxCell>
                <mxCell id="301" style="edgeStyle=orthogonalEdgeStyle;rounded=0;orthogonalLoop=1;jettySize=auto;html=1;exitX=0.25;exitY=1;exitDx=0;exitDy=0;entryX=0;entryY=0.5;entryDx=0;entryDy=0;" edge="1" parent="1" source="296" target="299">
                    <mxGeometry relative="1" as="geometry"/>
                </mxCell>
                <mxCell id="305" style="edgeStyle=orthogonalEdgeStyle;rounded=0;orthogonalLoop=1;jettySize=auto;html=1;exitX=0.25;exitY=1;exitDx=0;exitDy=0;entryX=0;entryY=0.5;entryDx=0;entryDy=0;" edge="1" parent="1" source="296" target="304">
                    <mxGeometry relative="1" as="geometry"/>
                </mxCell>
                <mxCell id="310" style="edgeStyle=orthogonalEdgeStyle;rounded=0;orthogonalLoop=1;jettySize=auto;html=1;exitX=0.25;exitY=1;exitDx=0;exitDy=0;entryX=0;entryY=0.5;entryDx=0;entryDy=0;" edge="1" parent="1" source="296" target="308">
                    <mxGeometry relative="1" as="geometry"/>
                </mxCell>
                <mxCell id="296" value="&lt;div style=&quot;text-align: left&quot;&gt;TcpConnection::connectEstablished()&lt;br&gt;&lt;/div&gt;" style="html=1;strokeColor=#000000;fillColor=none;" vertex="1" parent="1">
                    <mxGeometry x="3810" y="2480" width="230" height="40" as="geometry"/>
                </mxCell>
                <mxCell id="299" value="&lt;div style=&quot;text-align: left&quot;&gt;channel_-&amp;gt;tie(shared_from_this())&lt;br&gt;&lt;/div&gt;" style="html=1;strokeColor=#000000;fillColor=none;" vertex="1" parent="1">
                    <mxGeometry x="3900" y="2540" width="230" height="40" as="geometry"/>
                </mxCell>
                <mxCell id="303" style="edgeStyle=orthogonalEdgeStyle;rounded=0;orthogonalLoop=1;jettySize=auto;html=1;entryX=1;entryY=0.25;entryDx=0;entryDy=0;dashed=1" edge="1" parent="1" source="302" target="299">
                    <mxGeometry relative="1" as="geometry"/>
                </mxCell>
                <mxCell id="302" value="&lt;div&gt;Tie this channel to the owner object(TcpConnection) managed by shared_ptr,&lt;/div&gt;&lt;div&gt;prevent the owner object being destroyed in handleEvent.&lt;/div&gt;" style="text;html=1;align=center;verticalAlign=middle;resizable=0;points=[];autosize=1;strokeColor=none;align=left" vertex="1" parent="1">
                    <mxGeometry x="4200" y="2520" width="420" height="30" as="geometry"/>
                </mxCell>
                <mxCell id="304" value="&lt;div style=&quot;text-align: left&quot;&gt;channel_-&amp;gt;enableReading()&lt;br&gt;&lt;/div&gt;" style="html=1;strokeColor=#000000;fillColor=none;" vertex="1" parent="1">
                    <mxGeometry x="3900" y="2600" width="170" height="40" as="geometry"/>
                </mxCell>
                <mxCell id="307" style="edgeStyle=orthogonalEdgeStyle;rounded=0;orthogonalLoop=1;jettySize=auto;html=1;entryX=1;entryY=0.25;entryDx=0;entryDy=0;dashed=1" edge="1" parent="1" source="306" target="304">
                    <mxGeometry relative="1" as="geometry"/>
                </mxCell>
                <mxCell id="306" value="&lt;div&gt;EPOLL_CTL_ADD&lt;/div&gt;" style="text;html=1;align=center;verticalAlign=middle;resizable=0;points=[];autosize=1;strokeColor=none;align=left" vertex="1" parent="1">
                    <mxGeometry x="4150" y="2590" width="120" height="20" as="geometry"/>
                </mxCell>
                <mxCell id="312" value="" style="edgeStyle=orthogonalEdgeStyle;rounded=0;orthogonalLoop=1;jettySize=auto;html=1;" edge="1" parent="1" source="308" target="311">
                    <mxGeometry relative="1" as="geometry"/>
                </mxCell>
                <mxCell id="308" value="&lt;div style=&quot;text-align: left&quot;&gt;TcpConnection::connectionCallback_(shared_from_this())&lt;br&gt;&lt;/div&gt;" style="html=1;strokeColor=#000000;fillColor=none;" vertex="1" parent="1">
                    <mxGeometry x="3900" y="2660" width="320" height="40" as="geometry"/>
                </mxCell>
                <mxCell id="311" value="&lt;div style=&quot;text-align: left&quot;&gt;muduo::net::defaultConnectionCallback(const TcpConnectionPtr&amp;amp; conn)&lt;br&gt;&lt;/div&gt;" style="html=1;strokeColor=#000000;fillColor=none;" vertex="1" parent="1">
                    <mxGeometry x="4260" y="2660" width="420" height="40" as="geometry"/>
                </mxCell>
                <mxCell id="313" value=":Server" style="shape=umlLifeline;perimeter=lifelinePerimeter;whiteSpace=wrap;html=1;container=1;collapsible=0;recursiveResize=0;outlineConnect=0;strokeColor=#000000;fillColor=none;" vertex="1" parent="1">
                    <mxGeometry x="5750" y="600" width="100" height="3000" as="geometry"/>
                </mxCell>
                <mxCell id="316" value="&lt;div&gt;socket_(new Socket(sockfd)),&lt;/div&gt;&lt;div&gt;channel_(new Channel(loop, sockfd)),&lt;/div&gt;" style="html=1;strokeColor=#000000;fillColor=none;align=left" vertex="1" parent="1">
                    <mxGeometry x="3890" y="2300" width="230" height="40" as="geometry"/>
                </mxCell>
                <mxCell id="320" value="TcpServer" style="rounded=0;whiteSpace=wrap;html=1;" vertex="1" parent="1">
                    <mxGeometry x="5720" y="680" width="160" height="40" as="geometry"/>
                </mxCell>
            </root>
        </mxGraphModel>
    </diagram>
</mxfile>